<svg xmlns="http://www.w3.org/2000/svg" viewBox="0 0 64 64">
  <defs>
    <linearGradient id="g" x1="0" y1="0" x2="1" y2="1">
      <stop offset="0%" stop-color="#8b5cf6"/>
      <stop offset="100%" stop-color="#06b6d4"/>
    </linearGradient>
  </defs>
  <rect width="64" height="64" rx="14" fill="url(#g)"/>
  <path d="M22 22h20a4 4 0 0 1 4 4v16a4 4 0 0 1-4 4H22a4 4 0 0 1-4-4V26a4 4 0 0 1 4-4z" fill="none" stroke="#fff" stroke-width="3"/>
  <path d="M26 22v-3a3 3 0 0 1 3-3h6a3 3 0 0 1 3 3v3" fill="none" stroke="#fff" stroke-width="3"/>
  <line x1="18" y1="33" x2="46" y2="33" stroke="#fff" stroke-width="3"/>
</svg>
